<svg xmlns="http://www.w3.org/2000/svg" width="39.614" height="39.614" viewBox="0 0 39.614 39.614">
  <g id="_2276549" data-name="2276549" transform="translate(0 0)">
    <path id="Path_158" data-name="Path 158" d="M48.26,280.387h7.285l-.887-11.517H49.146Z" transform="translate(-44.526 -248.067)" fill="#5d338a"/>
    <path id="Path_159" data-name="Path 159" d="M208.93,280.387h7.284l-.886-11.517h-5.512Z" transform="translate(-192.765 -248.067)" fill="#5d338a"/>
    <path id="Path_160" data-name="Path 160" d="M369.59,280.387h7.284l-.886-11.517h-5.512Z" transform="translate(-340.994 -248.067)" fill="#5d338a"/>
    <path id="Path_161" data-name="Path 161" d="M38.454,450.384h-.082v-1.491a1.161,1.161,0,0,0-1.161-1.161H2.4a1.161,1.161,0,0,0-1.161,1.161v1.491H1.161a1.161,1.161,0,1,0,0,2.321H38.454a1.161,1.161,0,1,0,0-2.321Z" transform="translate(0 -413.091)" fill="#5d338a"/>
    <path id="Path_162" data-name="Path 162" d="M66.776,206.091V204.6H32.134v1.491a1.161,1.161,0,0,0,1.161,1.161H65.615A1.161,1.161,0,0,0,66.776,206.091Z" transform="translate(-29.648 -188.77)" fill="#5d338a"/>
    <path id="Path_163" data-name="Path 163" d="M1.161,13.509H38.454a1.161,1.161,0,0,0,.6-2.156L20.4.165a1.16,1.16,0,0,0-1.194,0L.564,11.353a1.161,1.161,0,0,0,.6,2.156Z" transform="translate(0 0)" fill="#5d338a"/>
  </g>
</svg>
