<svg xmlns="http://www.w3.org/2000/svg" width="37.556" height="43.492" viewBox="0 0 37.556 43.492">
  <g id="Line" transform="translate(-5 -2)">
    <path id="Path_154" data-name="Path 154" d="M39.243,19.942A13.888,13.888,0,0,1,38.728,15H33.193a12.842,12.842,0,0,1-.524,4.942Z" transform="translate(-0.319 -0.15)" fill="#1b5d97"/>
    <path id="Path_155" data-name="Path 155" d="M32,5.954a32.321,32.321,0,0,0,.86,6.919h6.188a29.159,29.159,0,0,0,.859-6.919A3.958,3.958,0,0,0,35.954,2,4.029,4.029,0,0,0,32,5.954Z" transform="translate(-0.312 0)" fill="#1b5d97"/>
    <path id="Path_156" data-name="Path 156" d="M29,33.377A25.587,25.587,0,0,0,32.222,45.4a1,1,0,0,0,.731.324h5.93a1.007,1.007,0,0,0,.886-.552,24.157,24.157,0,0,0,3.064-11.8A25.086,25.086,0,0,0,39.989,22H31.847A25.077,25.077,0,0,0,29,33.377Z" transform="translate(-0.277 -0.231)" fill="#1b5d97"/>
    <path id="Path_157" data-name="Path 157" d="M21.8,45.607a16.67,16.67,0,0,0,7.264-1.668,25.815,25.815,0,0,1-2.322-10.677c.014-5.335,1.413-8.885,3.529-13.354a10.96,10.96,0,0,0,.571-5.236A16.793,16.793,0,1,0,21.8,45.607Zm-3.46-27.677a1.483,1.483,0,1,1-1.483,1.483A1.484,1.484,0,0,1,18.344,17.931Zm0,5.931a1.483,1.483,0,1,1-1.483,1.483A1.484,1.484,0,0,1,18.344,23.861ZM14.39,20.9a1.483,1.483,0,1,1-1.483,1.483A1.484,1.484,0,0,1,14.39,20.9Z" transform="translate(0 -0.115)" fill="#1b5d97"/>
  </g>
</svg>
