<svg id="_4074070" data-name="4074070" xmlns="http://www.w3.org/2000/svg" width="28.997" height="25.486" viewBox="0 0 28.997 25.486">
  <path id="Path_150" data-name="Path 150" d="M44.318,31c-7.882,0-12.355,3.616-12.708,10.194H57.026C56.673,34.616,52.2,31,44.318,31Zm-5.1,8.5a.85.85,0,1,1,.85-.85A.85.85,0,0,1,39.221,39.5Zm3.4-3.4a.85.85,0,1,1,.85-.85A.85.85,0,0,1,42.619,36.1Zm3.4,1.7a.85.85,0,1,1,.85-.85A.85.85,0,0,1,46.017,37.8Zm3.4,1.7a.85.85,0,1,1,.85-.85A.85.85,0,0,1,49.415,39.5Z" transform="translate(-29.82 -31)" fill="#ed7718"/>
  <path id="Path_151" data-name="Path 151" d="M29,301.849a.841.841,0,0,1-.85.85H24.693a2.8,2.8,0,0,0-2.328,1.138,1.3,1.3,0,0,1-2.141,0,2.949,2.949,0,0,0-4.655,0,1.3,1.3,0,0,1-2.141,0A2.8,2.8,0,0,0,11.1,302.7a2.8,2.8,0,0,0-2.328,1.138,1.2,1.2,0,0,1-1.07.561,1.2,1.2,0,0,1-1.07-.561A2.8,2.8,0,0,0,4.3,302.7H.85a.85.85,0,0,1,0-1.7h27.3A.841.841,0,0,1,29,301.849Z" transform="translate(0 -285.709)" fill="#ed7718"/>
  <path id="Path_152" data-name="Path 152" d="M29,241.85a.841.841,0,0,1-.85.849H.85a.85.85,0,0,1,0-1.7h27.3A.841.841,0,0,1,29,241.85Z" transform="translate(0 -229.107)" fill="#ed7718"/>
  <path id="Path_153" data-name="Path 153" d="M55.367,361c-.551,0-.7.163-1.047.555a2.986,2.986,0,0,1-4.677.028c-.377-.421-.521-.583-1.072-.583s-.7.163-1.047.555a2.986,2.986,0,0,1-4.677.028c-.377-.421-.521-.583-1.072-.583s-.7.163-1.047.555a2.986,2.986,0,0,1-4.677.028c-.377-.421-.521-.583-1.072-.583H32.516a7.629,7.629,0,0,0,7.56,6.8H50.27a7.629,7.629,0,0,0,7.56-6.8Z" transform="translate(-30.674 -342.311)" fill="#ed7718"/>
</svg>
